<svg width="16" height="16" viewBox="0 0 16 16" fill="none" xmlns="http://www.w3.org/2000/svg">
<path fill-rule="evenodd" clip-rule="evenodd" d="M8.00003 0C5.82733 0 5.5549 0.0092 4.70163 0.0481333C3.8501 0.0869667 3.26857 0.222233 2.7597 0.42C2.23363 0.624433 1.7875 0.897967 1.3427 1.3427C0.897967 1.7875 0.624433 2.23363 0.42 2.7597C0.222233 3.26857 0.0869667 3.8501 0.0481333 4.7016C0.0092 5.5549 0 5.82733 0 8C0 10.1727 0.0092 10.4451 0.0481333 11.2984C0.0869667 12.1499 0.222233 12.7314 0.42 13.2403C0.624433 13.7664 0.897967 14.2125 1.3427 14.6573C1.7875 15.102 2.23363 15.3756 2.7597 15.58C3.26857 15.7778 3.8501 15.913 4.70163 15.9519C5.5549 15.9908 5.82733 16 8.00003 16C10.1727 16 10.4451 15.9908 11.2984 15.9519C12.1499 15.913 12.7314 15.7778 13.2403 15.58C13.7664 15.3756 14.2125 15.102 14.6573 14.6573C15.102 14.2125 15.3756 13.7664 15.58 13.2403C15.7778 12.7314 15.913 12.1499 15.9519 11.2984C15.9908 10.4451 16 10.1727 16 8C16 5.82733 15.9908 5.5549 15.9519 4.7016C15.913 3.8501 15.7778 3.26857 15.58 2.7597C15.3756 2.23363 15.102 1.7875 14.6573 1.3427C14.2125 0.897967 13.7664 0.624433 13.2403 0.42C12.7314 0.222233 12.1499 0.0869667 11.2984 0.0481333C10.4451 0.0092 10.1727 0 8.00003 0ZM8.00003 1.44143C10.1361 1.44143 10.3891 1.4496 11.2327 1.4881C12.0127 1.52367 12.4363 1.65397 12.7182 1.76353C13.0916 1.90867 13.3581 2.08203 13.638 2.362C13.918 2.6419 14.0913 2.9084 14.2365 3.28183C14.346 3.56373 14.4763 3.98733 14.5119 4.7673C14.5504 5.61087 14.5586 5.8639 14.5586 8C14.5586 10.1361 14.5504 10.3891 14.5119 11.2327C14.4763 12.0127 14.346 12.4363 14.2365 12.7182C14.0913 13.0916 13.918 13.3581 13.638 13.638C13.3581 13.918 13.0916 14.0913 12.7182 14.2365C12.4363 14.346 12.0127 14.4763 11.2327 14.5119C10.3892 14.5504 10.1363 14.5586 8.00003 14.5586C5.86373 14.5586 5.61077 14.5504 4.7673 14.5119C3.98733 14.4763 3.56373 14.346 3.28183 14.2365C2.9084 14.0913 2.64193 13.918 2.36197 13.638C2.08207 13.3581 1.90867 13.0916 1.76353 12.7182C1.65397 12.4363 1.52367 12.0127 1.4881 11.2327C1.4496 10.3891 1.44143 10.1361 1.44143 8C1.44143 5.8639 1.4496 5.61087 1.4881 4.7673C1.52367 3.98733 1.65397 3.56373 1.76353 3.28183C1.90867 2.9084 2.08203 2.6419 2.36197 2.362C2.64193 2.08203 2.9084 1.90867 3.28183 1.76353C3.56373 1.65397 3.98733 1.52367 4.7673 1.4881C5.61087 1.4496 5.8639 1.44143 8.00003 1.44143ZM3.8919 8C3.8919 5.73113 5.73113 3.8919 8.00003 3.8919C10.2689 3.8919 12.1081 5.73113 12.1081 8C12.1081 10.2689 10.2689 12.1081 8.00003 12.1081C5.73113 12.1081 3.8919 10.2689 3.8919 8ZM8.00003 10.6667C6.52723 10.6667 5.33333 9.47277 5.33333 8C5.33333 6.52723 6.52723 5.33333 8.00003 5.33333C9.47277 5.33333 10.6667 6.52723 10.6667 8C10.6667 9.47277 9.47277 10.6667 8.00003 10.6667ZM12.2704 4.68957C12.8006 4.68957 13.2304 4.2598 13.2304 3.7296C13.2304 3.1994 12.8006 2.76957 12.2704 2.76957C11.7402 2.76957 11.3104 3.1994 11.3104 3.7296C11.3104 4.2598 11.7402 4.68957 12.2704 4.68957Z" fill="white"/>
</svg>
